<?xml version="1.0" encoding="iso-8859-1"?>
<!-- Generator: Adobe Illustrator 19.0.0, SVG Export Plug-In . SVG Version: 6.00 Build 0)  -->
<svg version="1.1" id="Layer_1" xmlns="http://www.w3.org/2000/svg" xmlns:xlink="http://www.w3.org/1999/xlink" x="0px" y="0px"
	 viewBox="0 0 496 496" style="enable-background:new 0 0 496 496;" xml:space="preserve" stroke="#ffffff">
<g>
	<g>
		<g>
			<path d="M456,0H40C17.944,0,0,17.944,0,40v272c0,22.056,17.944,40,40,40h80v48H88v16h158.672
				c4.472,14.904,11.144,29.144,19.912,42.296l5.416,8.128V496h16v-34.424l-8.104-12.16C264.264,425.976,256,398.68,256,370.504
				c0-11.616,1.432-23.224,4.24-34.512l11.512-46.048L272,217.496c0-9.656,7.84-17.496,17.488-17.496
				c8.808,0,16.264,6.584,17.36,15.32L320.936,328h22.224l9.088-81.8L328,205.784v-44.696l80,66.664v75.216L368.264,453.96L368,496
				h16v-38.968L394.8,416H408v-16h-8.992l12.632-48H456c22.056,0,40-17.944,40-40V40C496,17.944,478.056,0,456,0z M136,400.008V400
				v-48h105.104c-0.72,6.144-1.104,12.32-1.104,18.504c0,9.976,1.032,19.832,2.864,29.504H136z M244.712,332.112
				c-0.32,1.288-0.552,2.592-0.848,3.888H40c-13.232,0-24-10.768-24-24v-8h137.472c3.312,9.288,12.112,16,22.528,16h71.744
				L244.712,332.112z M168,296V104h16v200h-8C171.584,304,168,300.416,168,296z M200,304V104h16v200H200z M312,192.824
				c-5.992-5.464-13.888-8.824-22.512-8.824C271.024,184,256,199.024,256,217.496v69.52L251.752,304H232V104h80V192.824z
				 M335.752,249.8l-3.984,35.848L328,255.536v-18.648L335.752,249.8z M120,88v16h32v32H80c-4.416,0-8-3.584-8-8V64
				c0-4.416,3.584-8,8-8h320c4.416,0,8,3.584,8,8v64c0,4.416-3.584,8-8,8h-72v-32h32V88H120z M480,312c0,13.232-10.768,24-24,24
				h-40.152l7.888-29.96l0.008-2.04H480V312z M480,288h-56.208L424,220.248L342.104,152H400c13.232,0,24-10.768,24-24V64
				c0-13.232-10.768-24-24-24H80c-13.232,0-24,10.768-24,24v64c0,13.232,10.768,24,24,24h72v136H16V40c0-13.232,10.768-24,24-24h416
				c13.232,0,24,10.768,24,24V288z" fill="#ffffff"/>
			<path d="M272,168c13.232,0,24-10.768,24-24s-10.768-24-24-24s-24,10.768-24,24S258.768,168,272,168z M272,136
				c4.416,0,8,3.584,8,8s-3.584,8-8,8c-4.416,0-8-3.584-8-8S267.584,136,272,136z" fill="#ffffff"/>
		</g>
	</g>
</g>
<g>
</g>
<g>
</g>
<g>
</g>
<g>
</g>
<g>
</g>
<g>
</g>
<g>
</g>
<g>
</g>
<g>
</g>
<g>
</g>
<g>
</g>
<g>
</g>
<g>
</g>
<g>
</g>
<g>
</g>
</svg>
